<svg width="21" height="21" viewBox="0 0 21 21" fill="none" xmlns="http://www.w3.org/2000/svg">
<path d="M10.7371 20.75H10.0151C8.83212 20.75 7.86113 19.862 7.75313 18.686L7.73912 18.539C7.71412 18.252 7.53212 18.006 7.26712 17.895C6.98112 17.775 6.68512 17.83 6.46912 18.01L6.35312 18.107C5.48512 18.832 4.10012 18.77 3.29312 17.967L2.78313 17.457C1.94713 16.617 1.88713 15.303 2.64313 14.397L2.74112 14.279C2.92712 14.057 2.97111 13.756 2.86311 13.492C2.75311 13.22 2.50512 13.038 2.21712 13.012L2.06712 12.998C0.887123 12.891 0.00012207 11.918 0.00012207 10.736V10.014C0.00012207 8.831 0.888117 7.86 2.06412 7.752L2.22012 7.738C2.50512 7.713 2.75012 7.531 2.86212 7.265C2.97212 6.995 2.92713 6.692 2.74213 6.47L2.64812 6.354C1.89112 5.446 1.95013 4.131 2.78513 3.294L3.29712 2.782C4.10112 1.978 5.48512 1.917 6.35712 2.642L6.47311 2.74C6.69111 2.924 7.00112 2.97 7.26312 2.862C7.53312 2.75 7.71513 2.504 7.74013 2.219L7.75412 2.066C7.86112 0.886002 8.83413 0 10.0161 0H10.7381C11.9211 0 12.8921 0.888003 13.0001 2.064L13.0141 2.22C13.0391 2.505 13.2201 2.75 13.4861 2.86C13.7631 2.977 14.0661 2.922 14.2801 2.743L14.4001 2.641C15.2671 1.918 16.6541 1.979 17.4601 2.781L17.9701 3.293C18.8061 4.131 18.8661 5.446 18.1101 6.353L18.0101 6.471C17.8221 6.691 17.7761 6.993 17.8871 7.259C17.9991 7.529 18.2471 7.709 18.5331 7.737L18.6851 7.751C19.8651 7.858 20.7521 8.831 20.7521 10.013V10.736C20.7521 11.919 19.8641 12.89 18.6881 12.998L18.5331 13.012C18.2491 13.036 18.0031 13.217 17.8931 13.482C17.7801 13.754 17.8261 14.056 18.0101 14.277L18.1101 14.397C18.8661 15.302 18.8061 16.617 17.9701 17.457L17.4601 17.967C16.6531 18.771 15.2701 18.831 14.4001 18.107L14.2851 18.011C14.0681 17.828 13.7551 17.781 13.4951 17.889C13.2221 18.003 13.0401 18.249 13.0151 18.535L13.0011 18.685C12.8941 19.858 11.9211 20.745 10.7391 20.745L10.7371 20.75ZM6.96413 16.33C7.26413 16.33 7.55712 16.39 7.83412 16.505C8.62412 16.833 9.15812 17.559 9.23412 18.401L9.24812 18.548C9.28512 18.948 9.61513 19.248 10.0181 19.248H10.7401C11.1401 19.248 11.4701 18.948 11.5081 18.548L11.5221 18.4C11.5981 17.558 12.1321 16.833 12.9141 16.508C13.7071 16.178 14.6101 16.326 15.2471 16.858L15.3601 16.952C15.5381 17.1 15.7261 17.132 15.8531 17.132C16.0591 17.132 16.2531 17.052 16.3991 16.905L16.9091 16.395C17.1931 16.111 17.2141 15.665 16.9571 15.357L16.8571 15.237C16.3151 14.587 16.1801 13.697 16.5051 12.914C16.8311 12.124 17.5571 11.594 18.3991 11.517L18.5541 11.503C18.9511 11.466 19.2541 11.136 19.2541 10.733V10.011C19.2541 9.611 18.9511 9.281 18.5521 9.243L18.4001 9.229C17.5541 9.151 16.8301 8.619 16.5051 7.836C16.1791 7.048 16.3151 6.158 16.8581 5.509L16.9581 5.391C17.2151 5.081 17.1941 4.635 16.9101 4.351L16.4001 3.841C16.2541 3.694 16.0601 3.614 15.8541 3.614C15.7271 3.614 15.5391 3.646 15.3621 3.794L15.2421 3.894C14.6081 4.422 13.6921 4.564 12.9201 4.248C12.1321 3.921 11.6001 3.196 11.5231 2.352L11.5091 2.197C11.4741 1.8 11.1441 1.497 10.7421 1.497H10.0191C9.61912 1.497 9.28911 1.8 9.25111 2.199L9.23712 2.351C9.16112 3.194 8.62912 3.919 7.84712 4.244C7.06012 4.57 6.15412 4.427 5.51712 3.894L5.39912 3.798C5.21912 3.648 5.03111 3.618 4.90411 3.618C4.69811 3.618 4.50412 3.698 4.35812 3.844L3.84612 4.354C3.56412 4.638 3.54313 5.084 3.80013 5.392L3.90012 5.51C4.44012 6.163 4.57712 7.054 4.25212 7.835C3.92512 8.623 3.20012 9.155 2.35712 9.232L2.20113 9.246C1.80413 9.283 1.50111 9.613 1.50111 10.016V10.738C1.50111 11.138 1.80413 11.468 2.20312 11.506L2.35312 11.52C3.20112 11.598 3.92612 12.132 4.25012 12.916C4.57512 13.702 4.44013 14.591 3.89713 15.241L3.80112 15.356C3.54112 15.666 3.56312 16.112 3.84712 16.396L4.35712 16.906C4.50312 17.053 4.69712 17.133 4.90312 17.133C5.03012 17.133 5.21813 17.103 5.39513 16.953L5.51112 16.857C5.91712 16.521 6.43413 16.333 6.96413 16.333V16.33Z" fill="black"/>
</svg>
